<?xml version="1.0" encoding="iso-8859-1"?>
<!-- Generator: Adobe Illustrator 21.0.0, SVG Export Plug-In . SVG Version: 6.00 Build 0)  -->
<svg version="1.1" id="Layer_1" xmlns="http://www.w3.org/2000/svg" xmlns:xlink="http://www.w3.org/1999/xlink" x="0px" y="0px"
	 viewBox="0 0 100.354 100.352" style="enable-background:new 0 0 100.354 100.352;" xml:space="preserve">
<g>
	<path d="M65.344,35.714L33.64,60.95c-0.648,0.516-0.755,1.46-0.24,2.108c0.296,0.372,0.733,0.566,1.175,0.566
		c0.327,0,0.657-0.106,0.933-0.326l31.704-25.236c0.648-0.516,0.755-1.46,0.24-2.108C66.936,35.306,65.992,35.198,65.344,35.714z"/>
	<path d="M37.499,45.257c1.36,0.994,2.965,1.515,4.619,1.515c0.406,0,0.815-0.031,1.224-0.095c4.28-0.666,7.222-4.689,6.557-8.971
		c-0.323-2.074-1.434-3.897-3.128-5.136c-1.694-1.239-3.771-1.743-5.843-1.421c-2.073,0.322-3.897,1.433-5.136,3.127
		s-1.743,3.77-1.421,5.843C34.693,42.194,35.804,44.018,37.499,45.257z M38.214,36.047c0.766-1.047,1.894-1.734,3.175-1.934
		c0.253-0.039,0.505-0.059,0.756-0.059c1.021,0,2.014,0.322,2.855,0.937c1.048,0.766,1.734,1.894,1.934,3.175l0,0
		c0.411,2.646-1.408,5.134-4.054,5.545c-1.283,0.197-2.565-0.113-3.612-0.878c-1.047-0.766-1.734-1.893-1.933-3.176
		C37.136,38.377,37.448,37.094,38.214,36.047z"/>
	<path d="M58.791,52.181c-4.334,0-7.86,3.525-7.86,7.858s3.526,7.857,7.86,7.857c4.333,0,7.859-3.524,7.859-7.857
		S63.125,52.181,58.791,52.181z M58.791,64.895c-2.68,0-4.86-2.179-4.86-4.857c0-2.679,2.18-4.858,4.86-4.858
		c2.679,0,4.859,2.179,4.859,4.858C63.65,62.717,61.47,64.895,58.791,64.895z"/>
	<path d="M89.146,41.172c-3.004-1.497-6.111-3.045-6.959-5.05c-0.866-2.047,0.322-5.297,1.472-8.441
		c1.559-4.261,3.169-8.668,0.249-11.586c-2.875-2.875-7.143-1.885-11.271-0.927c-2.961,0.687-6.023,1.398-8.109,0.517
		c-2.031-0.86-3.688-3.475-5.292-6.004C56.969,6.104,54.4,2.05,50.005,2.05c-4.403,0-6.922,4.144-9.146,7.801
		c-1.58,2.599-3.214,5.287-5.243,6.145c-2.079,0.88-5.179,0.101-8.177-0.653c-4.161-1.046-8.462-2.128-11.34,0.753
		c-2.907,2.904-1.474,7.335-0.087,11.622c1.015,3.14,2.065,6.387,1.193,8.448c-0.849,2.009-3.818,3.544-6.689,5.029
		c-3.967,2.051-8.463,4.376-8.463,8.807c0,4.417,4.321,6.834,8.134,8.967c2.736,1.53,5.565,3.113,6.42,5.132
		c0.876,2.071-0.039,5.247-0.924,8.318c-1.218,4.226-2.477,8.596,0.417,11.489c2.982,2.981,7.77,0.494,12.399-1.911
		c3.37-1.751,7.191-3.737,9.184-2.894c1.945,0.823,3.245,4.831,4.392,8.367c1.671,5.153,3.4,10.482,7.932,10.482
		c4.536,0,6.208-5.334,7.825-10.493c1.112-3.548,2.372-7.568,4.315-8.39c1.99-0.843,5.856,1.15,9.267,2.909
		c4.678,2.413,9.516,4.91,12.497,1.93c2.923-2.922,1.32-7.267-0.229-11.468c-1.142-3.095-2.322-6.294-1.458-8.339
		c0.85-2.009,3.945-3.602,6.939-5.142c4.324-2.225,8.794-4.525,8.794-8.958C97.952,45.56,93.475,43.329,89.146,41.172z
		 M87.785,56.289c-3.469,1.785-7.057,3.63-8.33,6.641c-1.326,3.139,0.063,6.904,1.407,10.546c1.279,3.468,2.488,6.744,0.923,8.309
		c-1.433,1.43-5.452-0.644-9-2.474c-4.19-2.161-8.523-4.395-11.811-3.006c-3.222,1.362-4.639,5.883-6.009,10.255
		c-1.293,4.125-2.63,8.391-4.962,8.391c-2.351,0-3.737-4.274-5.078-8.408c-1.411-4.35-2.87-8.848-6.076-10.204
		c-0.711-0.301-1.469-0.433-2.262-0.433c-2.878,0-6.22,1.736-9.475,3.427c-3.5,1.818-7.47,3.879-8.895,2.451
		c-1.642-1.641-0.677-4.991,0.345-8.537c1.03-3.573,2.094-7.269,0.804-10.318c-1.255-2.966-4.541-4.804-7.718-6.582
		c-3.394-1.898-6.599-3.691-6.599-6.349c0-2.605,3.323-4.323,6.841-6.143c3.345-1.729,6.804-3.518,8.075-6.525
		c1.307-3.089,0.082-6.876-1.102-10.539c-1.159-3.584-2.254-6.97-0.646-8.577c1.675-1.679,4.984-0.846,8.487,0.035
		c3.478,0.875,7.073,1.777,10.078,0.507c2.921-1.234,4.811-4.343,6.638-7.35c1.988-3.27,3.866-6.359,6.582-6.359
		c2.745,0,4.665,3.03,6.697,6.237c1.85,2.918,3.762,5.936,6.657,7.162c2.983,1.261,6.528,0.439,9.956-0.357
		c3.485-0.808,6.774-1.572,8.473,0.126c1.567,1.565,0.347,4.902-0.945,8.435c-1.349,3.689-2.744,7.504-1.417,10.64
		c1.28,3.026,4.892,4.826,8.384,6.566c3.674,1.831,7.144,3.56,7.144,6.142C94.952,52.602,91.47,54.393,87.785,56.289z"/>
</g>
</svg>
